# xmcd CD database file
#
# Track frame offsets:
#	150
#	23143
#	45382
#	62670
#	81129
#	102971
#	128488
#	140892
#	160190
#	172609
#	193887
#	205512
#	216381
#	233008
#	245508
#	266905
#	272120
#	290858
#	312092
#	333966
#
# Disc length: 4656 seconds
#
# Revision: 0
# Processed by: cddbd v1.5.2PL0 Copyright (c) Steve Scherf et al.
# Submitted via: CDex 1.70beta2
#
DISCID=23122e14
DTITLE=Nina Simone  - Solid Gold collection Cd2
DYEAR=2005
DGENRE=Blues
TTITLE0=To be young, gifted and black
TTITLE1=Te assigment song
TTITLE2=Don't be misunderstood
TTITLE3=No oportunity necessary, no experience needed
TTITLE4=Grin house blues
TTITLE5=After you've gone
TTITLE6=I'll look around
TTITLE7=When i was in my prime
TTITLE8=Ain't no use
TTITLE9=Blues
TTITLE10=Zungo
TTITLE11=Sunday in Savannah
TTITLE12=What you gotta do
TTITLE13=Backlash blues
TTITLE14=Pirate Jenny
TTITLE15=You took my teeth
TTITLE16=The other woman
TTITLE17=Mississippi goddam
TTITLE18=Four woman
TTITLE19=I want a little sugan in my bowl
EXTD=YEAR: 2005
EXTT0=
EXTT1=
EXTT2=
EXTT3=
EXTT4=
EXTT5=
EXTT6=
EXTT7=
EXTT8=
EXTT9=
EXTT10=
EXTT11=
EXTT12=
EXTT13=
EXTT14=
EXTT15=
EXTT16=
EXTT17=
EXTT18=
EXTT19=
PLAYORDER=
